<svg width="31" height="30" viewBox="0 0 31 30" fill="none" xmlns="http://www.w3.org/2000/svg">
<g clip-path="url(#clip0_16:1977)">
<path d="M18.7338 15.0253L30.4152 3.34355C31.1754 2.5837 31.1754 1.35513 30.4152 0.595278C29.6554 -0.164572 28.4268 -0.164572 27.667 0.595278L15.9852 12.277L4.30378 0.595278C3.54357 -0.164572 2.31536 -0.164572 1.55551 0.595278C0.7953 1.35513 0.7953 2.5837 1.55551 3.34355L13.2369 15.0253L1.55551 26.7071C0.7953 27.4669 0.7953 28.6955 1.55551 29.4553C1.93419 29.8344 2.43209 30.0248 2.92964 30.0248C3.42719 30.0248 3.92475 29.8344 4.30378 29.4553L15.9852 17.7736L27.667 29.4553C28.046 29.8344 28.5435 30.0248 29.0411 30.0248C29.5386 30.0248 30.0362 29.8344 30.4152 29.4553C31.1754 28.6955 31.1754 27.4669 30.4152 26.7071L18.7338 15.0253Z" fill="white"/>
</g>
<defs>
<clipPath id="clip0_16:1977">
<rect width="30" height="30" fill="white" transform="translate(0.985352)"/>
</clipPath>
</defs>
</svg>
