<svg width="138" height="24" viewBox="0 0 138 24" fill="none" xmlns="http://www.w3.org/2000/svg">
<g clip-path="url(#clip0_7604_267)">
<path d="M33.8164 2.82031H46.6602V5.70312H37.2852V9.6875H41.9258C43.207 9.6875 44.2695 9.84375 45.1133 10.1562C45.957 10.4688 46.6758 11.0469 47.2695 11.8906C47.8711 12.7344 48.1719 13.7227 48.1719 14.8555C48.1719 16.0195 47.8711 17.0156 47.2695 17.8438C46.668 18.6719 45.9805 19.2383 45.207 19.543C44.4414 19.8477 43.3477 20 41.9258 20H33.8164V2.82031ZM37.2852 17.1172H40.6602C41.7383 17.1172 42.4961 17.0664 42.9336 16.9648C43.3711 16.8555 43.75 16.6133 44.0703 16.2383C44.3984 15.8633 44.5625 15.4023 44.5625 14.8555C44.5625 14.0586 44.2773 13.4805 43.707 13.1211C43.1445 12.7539 42.1797 12.5703 40.8125 12.5703H37.2852V17.1172ZM51.043 2.82031H54.2891V14.2578L61.25 2.82031H64.707V20H61.4609V8.78516L54.5117 20H51.043V2.82031ZM68.3164 2.82031H81.1602V5.70312H71.7852V9.6875H76.4258C77.707 9.6875 78.7695 9.84375 79.6133 10.1562C80.457 10.4688 81.1758 11.0469 81.7695 11.8906C82.3711 12.7344 82.6719 13.7227 82.6719 14.8555C82.6719 16.0195 82.3711 17.0156 81.7695 17.8438C81.168 18.6719 80.4805 19.2383 79.707 19.543C78.9414 19.8477 77.8477 20 76.4258 20H68.3164V2.82031ZM71.7852 17.1172H75.1602C76.2383 17.1172 76.9961 17.0664 77.4336 16.9648C77.8711 16.8555 78.25 16.6133 78.5703 16.2383C78.8984 15.8633 79.0625 15.4023 79.0625 14.8555C79.0625 14.0586 78.7773 13.4805 78.207 13.1211C77.6445 12.7539 76.6797 12.5703 75.3125 12.5703H71.7852V17.1172ZM84.793 11.5156C84.793 9.76562 85.0547 8.29688 85.5781 7.10938C85.9688 6.23437 86.5 5.44922 87.1719 4.75391C87.8516 4.05859 88.5938 3.54297 89.3984 3.20703C90.4688 2.75391 91.7031 2.52734 93.1016 2.52734C95.6328 2.52734 97.6562 3.3125 99.1719 4.88281C100.695 6.45312 101.457 8.63672 101.457 11.4336C101.457 14.207 100.703 16.3789 99.1953 17.9492C97.6875 19.5117 95.6719 20.293 93.1484 20.293C90.5938 20.293 88.5625 19.5156 87.0547 17.9609C85.5469 16.3984 84.793 14.25 84.793 11.5156ZM88.3672 11.3984C88.3672 13.3438 88.8164 14.8203 89.7148 15.8281C90.6133 16.8281 91.7539 17.3281 93.1367 17.3281C94.5195 17.3281 95.6523 16.832 96.5352 15.8398C97.4258 14.8398 97.8711 13.3438 97.8711 11.3516C97.8711 9.38281 97.4375 7.91406 96.5703 6.94531C95.7109 5.97656 94.5664 5.49219 93.1367 5.49219C91.707 5.49219 90.5547 5.98438 89.6797 6.96875C88.8047 7.94531 88.3672 9.42188 88.3672 11.3984ZM115.168 13.6836L118.531 14.75C118.016 16.625 117.156 18.0195 115.953 18.9336C114.758 19.8398 113.238 20.293 111.395 20.293C109.113 20.293 107.238 19.5156 105.77 17.9609C104.301 16.3984 103.566 14.2656 103.566 11.5625C103.566 8.70312 104.305 6.48438 105.781 4.90625C107.258 3.32031 109.199 2.52734 111.605 2.52734C113.707 2.52734 115.414 3.14844 116.727 4.39062C117.508 5.125 118.094 6.17969 118.484 7.55469L115.051 8.375C114.848 7.48438 114.422 6.78125 113.773 6.26562C113.133 5.75 112.352 5.49219 111.43 5.49219C110.156 5.49219 109.121 5.94922 108.324 6.86328C107.535 7.77734 107.141 9.25781 107.141 11.3047C107.141 13.4766 107.531 15.0234 108.312 15.9453C109.094 16.8672 110.109 17.3281 111.359 17.3281C112.281 17.3281 113.074 17.0352 113.738 16.4492C114.402 15.8633 114.879 14.9414 115.168 13.6836ZM132.512 13.6836L135.875 14.75C135.359 16.625 134.5 18.0195 133.297 18.9336C132.102 19.8398 130.582 20.293 128.738 20.293C126.457 20.293 124.582 19.5156 123.113 17.9609C121.645 16.3984 120.91 14.2656 120.91 11.5625C120.91 8.70312 121.648 6.48438 123.125 4.90625C124.602 3.32031 126.543 2.52734 128.949 2.52734C131.051 2.52734 132.758 3.14844 134.07 4.39062C134.852 5.125 135.438 6.17969 135.828 7.55469L132.395 8.375C132.191 7.48438 131.766 6.78125 131.117 6.26562C130.477 5.75 129.695 5.49219 128.773 5.49219C127.5 5.49219 126.465 5.94922 125.668 6.86328C124.879 7.77734 124.484 9.25781 124.484 11.3047C124.484 13.4766 124.875 15.0234 125.656 15.9453C126.438 16.8672 127.453 17.3281 128.703 17.3281C129.625 17.3281 130.418 17.0352 131.082 16.4492C131.746 15.8633 132.223 14.9414 132.512 13.6836Z" fill="black"/>
<path fill-rule="evenodd" clip-rule="evenodd" d="M7.98872 0H16.0113V7.98867H7.98872V16.0113H0V7.98867V0H7.98872Z" fill="#FA961E"/>
<path fill-rule="evenodd" clip-rule="evenodd" d="M16.0112 0H23.9999V7.98867V16.0113H16.0112V7.98867V0Z" fill="#FFBE0A"/>
<path d="M7.98872 16.0112H0V23.9999H7.98872V16.0112Z" fill="#00B4F0"/>
<path fill-rule="evenodd" clip-rule="evenodd" d="M7.98877 7.98877H16.0113V16.0114H24.0001V24.0001H16.0113H7.98877V16.0114V7.98877Z" fill="#1EA01E"/>
</g>
<defs>
<clipPath id="clip0_7604_267">
<rect width="138" height="24" fill="white"/>
</clipPath>
</defs>
</svg>
