<svg width="103" height="19" viewBox="0 0 103 19" fill="none" xmlns="http://www.w3.org/2000/svg">
<path d="M0.816406 0.820312H13.6602V3.70312H4.28516V7.6875H8.92578C10.207 7.6875 11.2695 7.84375 12.1133 8.15625C12.957 8.46875 13.6758 9.04688 14.2695 9.89062C14.8711 10.7344 15.1719 11.7227 15.1719 12.8555C15.1719 14.0195 14.8711 15.0156 14.2695 15.8438C13.668 16.6719 12.9805 17.2383 12.207 17.543C11.4414 17.8477 10.3477 18 8.92578 18H0.816406V0.820312ZM4.28516 15.1172H7.66016C8.73828 15.1172 9.49609 15.0664 9.93359 14.9648C10.3711 14.8555 10.75 14.6133 11.0703 14.2383C11.3984 13.8633 11.5625 13.4023 11.5625 12.8555C11.5625 12.0586 11.2773 11.4805 10.707 11.1211C10.1445 10.7539 9.17969 10.5703 7.8125 10.5703H4.28516V15.1172ZM18.043 0.820312H21.2891V12.2578L28.25 0.820312H31.707V18H28.4609V6.78516L21.5117 18H18.043V0.820312ZM35.3164 0.820312H48.1602V3.70312H38.7852V7.6875H43.4258C44.707 7.6875 45.7695 7.84375 46.6133 8.15625C47.457 8.46875 48.1758 9.04688 48.7695 9.89062C49.3711 10.7344 49.6719 11.7227 49.6719 12.8555C49.6719 14.0195 49.3711 15.0156 48.7695 15.8438C48.168 16.6719 47.4805 17.2383 46.707 17.543C45.9414 17.8477 44.8477 18 43.4258 18H35.3164V0.820312ZM38.7852 15.1172H42.1602C43.2383 15.1172 43.9961 15.0664 44.4336 14.9648C44.8711 14.8555 45.25 14.6133 45.5703 14.2383C45.8984 13.8633 46.0625 13.4023 46.0625 12.8555C46.0625 12.0586 45.7773 11.4805 45.207 11.1211C44.6445 10.7539 43.6797 10.5703 42.3125 10.5703H38.7852V15.1172ZM51.793 9.51562C51.793 7.76562 52.0547 6.29688 52.5781 5.10938C52.9688 4.23437 53.5 3.44922 54.1719 2.75391C54.8516 2.05859 55.5938 1.54297 56.3984 1.20703C57.4688 0.753906 58.7031 0.527344 60.1016 0.527344C62.6328 0.527344 64.6562 1.3125 66.1719 2.88281C67.6953 4.45312 68.457 6.63672 68.457 9.43359C68.457 12.207 67.7031 14.3789 66.1953 15.9492C64.6875 17.5117 62.6719 18.293 60.1484 18.293C57.5938 18.293 55.5625 17.5156 54.0547 15.9609C52.5469 14.3984 51.793 12.25 51.793 9.51562ZM55.3672 9.39844C55.3672 11.3438 55.8164 12.8203 56.7148 13.8281C57.6133 14.8281 58.7539 15.3281 60.1367 15.3281C61.5195 15.3281 62.6523 14.832 63.5352 13.8398C64.4258 12.8398 64.8711 11.3438 64.8711 9.35156C64.8711 7.38281 64.4375 5.91406 63.5703 4.94531C62.7109 3.97656 61.5664 3.49219 60.1367 3.49219C58.707 3.49219 57.5547 3.98438 56.6797 4.96875C55.8047 5.94531 55.3672 7.42188 55.3672 9.39844ZM82.168 11.6836L85.5312 12.75C85.0156 14.625 84.1562 16.0195 82.9531 16.9336C81.7578 17.8398 80.2383 18.293 78.3945 18.293C76.1133 18.293 74.2383 17.5156 72.7695 15.9609C71.3008 14.3984 70.5664 12.2656 70.5664 9.5625C70.5664 6.70312 71.3047 4.48438 72.7812 2.90625C74.2578 1.32031 76.1992 0.527344 78.6055 0.527344C80.707 0.527344 82.4141 1.14844 83.7266 2.39062C84.5078 3.125 85.0938 4.17969 85.4844 5.55469L82.0508 6.375C81.8477 5.48438 81.4219 4.78125 80.7734 4.26562C80.1328 3.75 79.3516 3.49219 78.4297 3.49219C77.1562 3.49219 76.1211 3.94922 75.3242 4.86328C74.5352 5.77734 74.1406 7.25781 74.1406 9.30469C74.1406 11.4766 74.5312 13.0234 75.3125 13.9453C76.0938 14.8672 77.1094 15.3281 78.3594 15.3281C79.2812 15.3281 80.0742 15.0352 80.7383 14.4492C81.4023 13.8633 81.8789 12.9414 82.168 11.6836ZM99.5117 11.6836L102.875 12.75C102.359 14.625 101.5 16.0195 100.297 16.9336C99.1016 17.8398 97.582 18.293 95.7383 18.293C93.457 18.293 91.582 17.5156 90.1133 15.9609C88.6445 14.3984 87.9102 12.2656 87.9102 9.5625C87.9102 6.70312 88.6484 4.48438 90.125 2.90625C91.6016 1.32031 93.543 0.527344 95.9492 0.527344C98.0508 0.527344 99.7578 1.14844 101.07 2.39062C101.852 3.125 102.438 4.17969 102.828 5.55469L99.3945 6.375C99.1914 5.48438 98.7656 4.78125 98.1172 4.26562C97.4766 3.75 96.6953 3.49219 95.7734 3.49219C94.5 3.49219 93.4648 3.94922 92.668 4.86328C91.8789 5.77734 91.4844 7.25781 91.4844 9.30469C91.4844 11.4766 91.875 13.0234 92.6562 13.9453C93.4375 14.8672 94.4531 15.3281 95.7031 15.3281C96.625 15.3281 97.418 15.0352 98.082 14.4492C98.7461 13.8633 99.2227 12.9414 99.5117 11.6836Z" fill="black"/>
</svg>
